<svg width="40" height="40" viewBox="0 0 40 40" fill="none" xmlns="http://www.w3.org/2000/svg">
  <rect width="40" height="40" rx="9" fill="#0B102F"/>
  <circle cx="18" cy="18" r="10" stroke="#42E8F4" stroke-width="4"/>
  <path d="M25.5 25.5L32 32" stroke="#7C4DFF" stroke-width="5" stroke-linecap="round"/>
  <path d="M12 14C10.7 14 10 14.8 10 16V17.2C10 18 9.5 18.5 8.8 18.5H8V21.5H8.8C9.5 21.5 10 22 10 22.8V24C10 25.2 10.7 26 12 26" stroke="#62FFE0" stroke-width="2.6" stroke-linecap="round"/>
  <path d="M24 14C25.3 14 26 14.8 26 16V17.2C26 18 26.5 18.5 27.2 18.5H28V21.5H27.2C26.5 21.5 26 22 26 22.8V24C26 25.2 25.3 26 24 26" stroke="#A76BFF" stroke-width="2.6" stroke-linecap="round"/>
  <circle cx="18" cy="20" r="2" fill="#FFD84D"/>
  <circle cx="14.5" cy="20" r="1.5" fill="#42E8F4"/>
  <circle cx="21.5" cy="20" r="1.5" fill="#FF5DAA"/>
</svg>
